<?xml version="1.0" encoding="UTF-8" standalone="no"?><svg xmlns="http://www.w3.org/2000/svg" xmlns:xlink="http://www.w3.org/1999/xlink" contentScriptType="application/ecmascript" contentStyleType="text/css" height="579px" preserveAspectRatio="none" style="width:342px;height:579px;" version="1.1" viewBox="0 0 342 579" width="342px" zoomAndPan="magnify"><defs><filter height="300%" id="f18zu32vhs2wj" width="300%" x="-1" y="-1"><feGaussianBlur result="blurOut" stdDeviation="2.0"/><feColorMatrix in="blurOut" result="blurOut2" type="matrix" values="0 0 0 0 0 0 0 0 0 0 0 0 0 0 0 0 0 0 .4 0"/><feOffset dx="4.0" dy="4.0" in="blurOut2" result="blurOut3"/><feBlend in="SourceGraphic" in2="blurOut3" mode="normal"/></filter></defs><g><text fill="#000000" font-family="sans-serif" font-size="18" lengthAdjust="spacingAndGlyphs" textLength="250" x="49.5" y="16.708">Class Diagram for consensus</text><!--class C_0001246296997010850462--><rect fill="#FEFECE" filter="url(#f18zu32vhs2wj)" height="316.8984" id="C_0001246296997010850462" style="stroke: #A80036; stroke-width: 1.5;" width="325" x="6" y="251.9531"/><ellipse cx="110.25" cy="267.9531" fill="#ADD1B2" rx="11" ry="11" style="stroke: #A80036; stroke-width: 1.0;"/><path d="M113.2188,273.5938 Q112.6406,273.8906 112,274.0313 Q111.3594,274.1875 110.6563,274.1875 Q108.1563,274.1875 106.8281,272.5469 Q105.5156,270.8906 105.5156,267.7656 Q105.5156,264.6406 106.8281,262.9844 Q108.1563,261.3281 110.6563,261.3281 Q111.3594,261.3281 112,261.4844 Q112.6563,261.6406 113.2188,261.9375 L113.2188,264.6563 Q112.5938,264.0781 112,263.8125 Q111.4063,263.5313 110.7813,263.5313 Q109.4375,263.5313 108.75,264.6094 Q108.0625,265.6719 108.0625,267.7656 Q108.0625,269.8594 108.75,270.9375 Q109.4375,272 110.7813,272 Q111.4063,272 112,271.7344 Q112.5938,271.4531 113.2188,270.875 L113.2188,273.5938 Z "/><text fill="#000000" font-family="sans-serif" font-size="12" lengthAdjust="spacingAndGlyphs" textLength="108" x="130.75" y="272.1074">ConsensusParms</text><line style="stroke: #A80036; stroke-width: 1.5;" x1="7" x2="330" y1="283.9531" y2="283.9531"/><ellipse cx="17" cy="295.8555" fill="none" rx="3" ry="3" style="stroke: #038048; stroke-width: 1.0;"/><text fill="#000000" font-family="sans-serif" font-size="11" lengthAdjust="spacingAndGlyphs" textLength="252" x="26" y="298.1636">validationVALID_WALL : std::chrono::seconds</text><ellipse cx="17" cy="308.6602" fill="none" rx="3" ry="3" style="stroke: #038048; stroke-width: 1.0;"/><text fill="#000000" font-family="sans-serif" font-size="11" lengthAdjust="spacingAndGlyphs" textLength="260" x="26" y="310.9683">validationVALID_LOCAL : std::chrono::seconds</text><ellipse cx="17" cy="321.4648" fill="none" rx="3" ry="3" style="stroke: #038048; stroke-width: 1.0;"/><text fill="#000000" font-family="sans-serif" font-size="11" lengthAdjust="spacingAndGlyphs" textLength="258" x="26" y="323.7729">validationVALID_EARLY : std::chrono::seconds</text><ellipse cx="17" cy="334.2695" fill="none" rx="3" ry="3" style="stroke: #038048; stroke-width: 1.0;"/><text fill="#000000" font-family="sans-serif" font-size="11" lengthAdjust="spacingAndGlyphs" textLength="247" x="26" y="336.5776">proposeFRESHNESS : std::chrono::seconds</text><ellipse cx="17" cy="347.0742" fill="none" rx="3" ry="3" style="stroke: #038048; stroke-width: 1.0;"/><text fill="#000000" font-family="sans-serif" font-size="11" lengthAdjust="spacingAndGlyphs" textLength="232" x="26" y="349.3823">proposeINTERVAL : std::chrono::seconds</text><ellipse cx="17" cy="359.8789" fill="none" rx="3" ry="3" style="stroke: #038048; stroke-width: 1.0;"/><text fill="#000000" font-family="sans-serif" font-size="11" lengthAdjust="spacingAndGlyphs" textLength="191" x="26" y="362.187">minCONSENSUS_PCT : std::size_t</text><ellipse cx="17" cy="372.6836" fill="none" rx="3" ry="3" style="stroke: #038048; stroke-width: 1.0;"/><text fill="#000000" font-family="sans-serif" font-size="11" lengthAdjust="spacingAndGlyphs" textLength="274" x="26" y="374.9917">ledgerIDLE_INTERVAL : std::chrono::milliseconds</text><ellipse cx="17" cy="385.4883" fill="none" rx="3" ry="3" style="stroke: #038048; stroke-width: 1.0;"/><text fill="#000000" font-family="sans-serif" font-size="11" lengthAdjust="spacingAndGlyphs" textLength="290" x="26" y="387.7964">ledgerMIN_CONSENSUS : std::chrono::milliseconds</text><ellipse cx="17" cy="398.293" fill="none" rx="3" ry="3" style="stroke: #038048; stroke-width: 1.0;"/><text fill="#000000" font-family="sans-serif" font-size="11" lengthAdjust="spacingAndGlyphs" textLength="293" x="26" y="400.6011">ledgerMAX_CONSENSUS : std::chrono::milliseconds</text><ellipse cx="17" cy="411.0977" fill="none" rx="3" ry="3" style="stroke: #038048; stroke-width: 1.0;"/><text fill="#000000" font-family="sans-serif" font-size="11" lengthAdjust="spacingAndGlyphs" textLength="256" x="26" y="413.4058">ledgerMIN_CLOSE : std::chrono::milliseconds</text><ellipse cx="17" cy="423.9023" fill="none" rx="3" ry="3" style="stroke: #038048; stroke-width: 1.0;"/><text fill="#000000" font-family="sans-serif" font-size="11" lengthAdjust="spacingAndGlyphs" textLength="268" x="26" y="426.2104">ledgerGRANULARITY : std::chrono::milliseconds</text><ellipse cx="17" cy="436.707" fill="none" rx="3" ry="3" style="stroke: #038048; stroke-width: 1.0;"/><text fill="#000000" font-family="sans-serif" font-size="11" lengthAdjust="spacingAndGlyphs" textLength="299" x="26" y="439.0151">avMIN_CONSENSUS_TIME : std::chrono::milliseconds</text><ellipse cx="17" cy="449.5117" fill="none" rx="3" ry="3" style="stroke: #038048; stroke-width: 1.0;"/><text fill="#000000" font-family="sans-serif" font-size="11" lengthAdjust="spacingAndGlyphs" textLength="210" x="26" y="451.8198">avINIT_CONSENSUS_PCT : std::size_t</text><ellipse cx="17" cy="462.3164" fill="none" rx="3" ry="3" style="stroke: #038048; stroke-width: 1.0;"/><text fill="#000000" font-family="sans-serif" font-size="11" lengthAdjust="spacingAndGlyphs" textLength="213" x="26" y="464.6245">avMID_CONSENSUS_TIME : std::size_t</text><ellipse cx="17" cy="475.1211" fill="none" rx="3" ry="3" style="stroke: #038048; stroke-width: 1.0;"/><text fill="#000000" font-family="sans-serif" font-size="11" lengthAdjust="spacingAndGlyphs" textLength="209" x="26" y="477.4292">avMID_CONSENSUS_PCT : std::size_t</text><ellipse cx="17" cy="487.9258" fill="none" rx="3" ry="3" style="stroke: #038048; stroke-width: 1.0;"/><text fill="#000000" font-family="sans-serif" font-size="11" lengthAdjust="spacingAndGlyphs" textLength="220" x="26" y="490.2339">avLATE_CONSENSUS_TIME : std::size_t</text><ellipse cx="17" cy="500.7305" fill="none" rx="3" ry="3" style="stroke: #038048; stroke-width: 1.0;"/><text fill="#000000" font-family="sans-serif" font-size="11" lengthAdjust="spacingAndGlyphs" textLength="216" x="26" y="503.0386">avLATE_CONSENSUS_PCT : std::size_t</text><ellipse cx="17" cy="513.5352" fill="none" rx="3" ry="3" style="stroke: #038048; stroke-width: 1.0;"/><text fill="#000000" font-family="sans-serif" font-size="11" lengthAdjust="spacingAndGlyphs" textLength="231" x="26" y="515.8433">avSTUCK_CONSENSUS_TIME : std::size_t</text><ellipse cx="17" cy="526.3398" fill="none" rx="3" ry="3" style="stroke: #038048; stroke-width: 1.0;"/><text fill="#000000" font-family="sans-serif" font-size="11" lengthAdjust="spacingAndGlyphs" textLength="227" x="26" y="528.6479">avSTUCK_CONSENSUS_PCT : std::size_t</text><ellipse cx="17" cy="539.1445" fill="none" rx="3" ry="3" style="stroke: #038048; stroke-width: 1.0;"/><text fill="#000000" font-family="sans-serif" font-size="11" lengthAdjust="spacingAndGlyphs" textLength="204" x="26" y="541.4526">avCT_CONSENSUS_PCT : std::size_t</text><line style="stroke: #A80036; stroke-width: 1.5;" x1="7" x2="330" y1="548.0469" y2="548.0469"/><ellipse cx="17" cy="559.9492" fill="#84BE84" rx="3" ry="3" style="stroke: #038048; stroke-width: 1.0;"/><text fill="#000000" font-family="sans-serif" font-size="11" lengthAdjust="spacingAndGlyphs" textLength="200" x="26" y="562.2573">ConsensusParms() = default : void</text><!--class C_0002084909879430630243--><rect fill="#FEFECE" filter="url(#f18zu32vhs2wj)" height="163.2422" id="C_0002084909879430630243" style="stroke: #A80036; stroke-width: 1.5;" width="246" x="45.5" y="28.9531"/><ellipse cx="86.15" cy="44.9531" fill="#ADD1B2" rx="11" ry="11" style="stroke: #A80036; stroke-width: 1.0;"/><path d="M89.1188,50.5938 Q88.5406,50.8906 87.9,51.0313 Q87.2594,51.1875 86.5563,51.1875 Q84.0563,51.1875 82.7281,49.5469 Q81.4156,47.8906 81.4156,44.7656 Q81.4156,41.6406 82.7281,39.9844 Q84.0563,38.3281 86.5563,38.3281 Q87.2594,38.3281 87.9,38.4844 Q88.5563,38.6406 89.1188,38.9375 L89.1188,41.6563 Q88.4938,41.0781 87.9,40.8125 Q87.3063,40.5313 86.6813,40.5313 Q85.3375,40.5313 84.65,41.6094 Q83.9625,42.6719 83.9625,44.7656 Q83.9625,46.8594 84.65,47.9375 Q85.3375,49 86.6813,49 Q87.3063,49 87.9,48.7344 Q88.4938,48.4531 89.1188,47.875 L89.1188,50.5938 Z "/><text fill="#000000" font-family="sans-serif" font-size="12" lengthAdjust="spacingAndGlyphs" textLength="69" x="105.85" y="49.1074">DisputedTx</text><rect fill="#FFFFFF" height="15.9688" style="stroke: #000000; stroke-width: 1.0; stroke-dasharray: 2.0,2.0;" width="86" x="208.5" y="25.9531"/><text fill="#000000" font-family="sans-serif" font-size="12" font-style="italic" lengthAdjust="spacingAndGlyphs" textLength="84" x="209.5" y="38.0918">Tx_t,NodeID_t</text><line style="stroke: #A80036; stroke-width: 1.5;" x1="46.5" x2="290.5" y1="60.9531" y2="60.9531"/><line style="stroke: #A80036; stroke-width: 1.5;" x1="46.5" x2="290.5" y1="68.9531" y2="68.9531"/><ellipse cx="56.5" cy="80.8555" fill="#84BE84" rx="3" ry="3" style="stroke: #038048; stroke-width: 1.0;"/><text fill="#000000" font-family="sans-serif" font-size="11" lengthAdjust="spacingAndGlyphs" textLength="205" x="65.5" y="83.1636">DisputedTx&lt;Tx_t, NodeID_t&gt;() : void</text><ellipse cx="56.5" cy="93.6602" fill="#84BE84" rx="3" ry="3" style="stroke: #038048; stroke-width: 1.0;"/><text fill="#000000" font-family="sans-serif" font-size="11" lengthAdjust="spacingAndGlyphs" textLength="220" x="65.5" y="95.9683">ID() const : const DisputedTx::TxID_t &amp;</text><ellipse cx="56.5" cy="106.4648" fill="#84BE84" rx="3" ry="3" style="stroke: #038048; stroke-width: 1.0;"/><text fill="#000000" font-family="sans-serif" font-size="11" lengthAdjust="spacingAndGlyphs" textLength="143" x="65.5" y="108.7729">getOurVote() const : bool</text><ellipse cx="56.5" cy="119.2695" fill="#84BE84" rx="3" ry="3" style="stroke: #038048; stroke-width: 1.0;"/><text fill="#000000" font-family="sans-serif" font-size="11" lengthAdjust="spacingAndGlyphs" textLength="137" x="65.5" y="121.5776">tx() const : const Tx_t &amp;</text><ellipse cx="56.5" cy="132.0742" fill="#84BE84" rx="3" ry="3" style="stroke: #038048; stroke-width: 1.0;"/><text fill="#000000" font-family="sans-serif" font-size="11" lengthAdjust="spacingAndGlyphs" textLength="107" x="65.5" y="134.3823">setOurVote() : void</text><ellipse cx="56.5" cy="144.8789" fill="#84BE84" rx="3" ry="3" style="stroke: #038048; stroke-width: 1.0;"/><text fill="#000000" font-family="sans-serif" font-size="11" lengthAdjust="spacingAndGlyphs" textLength="86" x="65.5" y="147.187">setVote() : void</text><ellipse cx="56.5" cy="157.6836" fill="#84BE84" rx="3" ry="3" style="stroke: #038048; stroke-width: 1.0;"/><text fill="#000000" font-family="sans-serif" font-size="11" lengthAdjust="spacingAndGlyphs" textLength="82" x="65.5" y="159.9917">unVote() : void</text><ellipse cx="56.5" cy="170.4883" fill="#84BE84" rx="3" ry="3" style="stroke: #038048; stroke-width: 1.0;"/><text fill="#000000" font-family="sans-serif" font-size="11" lengthAdjust="spacingAndGlyphs" textLength="108" x="65.5" y="172.7964">updateVote() : bool</text><ellipse cx="56.5" cy="183.293" fill="#84BE84" rx="3" ry="3" style="stroke: #038048; stroke-width: 1.0;"/><text fill="#000000" font-family="sans-serif" font-size="11" lengthAdjust="spacingAndGlyphs" textLength="160" x="65.5" y="185.6011">getJson() const : Json::Value</text><!--link C_0002084909879430630243 to C_0001246296997010850462--><path d="M168.5,192.0931 C168.5,209.1131 168.5,227.6431 168.5,246.4831 " fill="none" id="C_0002084909879430630243-C_0001246296997010850462" style="stroke: #A80036; stroke-width: 1.0; stroke-dasharray: 7.0,7.0;"/><polygon fill="#A80036" points="168.5,251.8031,172.5,242.8031,168.5,246.8031,164.5,242.8031,168.5,251.8031" style="stroke: #A80036; stroke-width: 1.0;"/><!--
@startuml
title Class Diagram for consensus
class "ConsensusParms" as C_0001246296997010850462
class C_0001246296997010850462 {
+ConsensusParms() = default : void
+validationVALID_WALL : std::chrono::seconds
+validationVALID_LOCAL : std::chrono::seconds
+validationVALID_EARLY : std::chrono::seconds
+proposeFRESHNESS : std::chrono::seconds
+proposeINTERVAL : std::chrono::seconds
+minCONSENSUS_PCT : std::size_t
+ledgerIDLE_INTERVAL : std::chrono::milliseconds
+ledgerMIN_CONSENSUS : std::chrono::milliseconds
+ledgerMAX_CONSENSUS : std::chrono::milliseconds
+ledgerMIN_CLOSE : std::chrono::milliseconds
+ledgerGRANULARITY : std::chrono::milliseconds
+avMIN_CONSENSUS_TIME : std::chrono::milliseconds
+avINIT_CONSENSUS_PCT : std::size_t
+avMID_CONSENSUS_TIME : std::size_t
+avMID_CONSENSUS_PCT : std::size_t
+avLATE_CONSENSUS_TIME : std::size_t
+avLATE_CONSENSUS_PCT : std::size_t
+avSTUCK_CONSENSUS_TIME : std::size_t
+avSTUCK_CONSENSUS_PCT : std::size_t
+avCT_CONSENSUS_PCT : std::size_t
}
class "DisputedTx<Tx_t,NodeID_t>" as C_0002084909879430630243
class C_0002084909879430630243 {
+DisputedTx<Tx_t, NodeID_t>() : void
+ID() const : const DisputedTx::TxID_t &
+getOurVote() const : bool
+tx() const : const Tx_t &
+setOurVote() : void
+setVote() : void
+unVote() : void
+updateVote() : bool
+getJson() const : Json::Value
}
C_0002084909879430630243 ..> C_0001246296997010850462
@enduml

PlantUML version 1.2018.13(Mon Nov 26 17:11:51 UTC 2018)
(GPL source distribution)
Java Runtime: OpenJDK Runtime Environment
JVM: OpenJDK 64-Bit Server VM
Java Version: 11.0.17+8-post-Ubuntu-1ubuntu220.04
Operating System: Linux
OS Version: 5.4.0-91-generic
Default Encoding: UTF-8
Language: en
Country: null
--></g></svg>