<?xml version="1.0" encoding="UTF-8" standalone="no"?><svg xmlns="http://www.w3.org/2000/svg" xmlns:xlink="http://www.w3.org/1999/xlink" contentScriptType="application/ecmascript" contentStyleType="text/css" height="1074px" preserveAspectRatio="none" style="width:2969px;height:1074px;" version="1.1" viewBox="0 0 2969 1074" width="2969px" zoomAndPan="magnify"><defs><filter height="300%" id="f1jqhbcxr893a9" width="300%" x="-1" y="-1"><feGaussianBlur result="blurOut" stdDeviation="2.0"/><feColorMatrix in="blurOut" result="blurOut2" type="matrix" values="0 0 0 0 0 0 0 0 0 0 0 0 0 0 0 0 0 0 .4 0"/><feOffset dx="4.0" dy="4.0" in="blurOut2" result="blurOut3"/><feBlend in="SourceGraphic" in2="blurOut3" mode="normal"/></filter></defs><g><rect fill="#FFFFFF" filter="url(#f1jqhbcxr893a9)" height="954.7891" style="stroke: #A80036; stroke-width: 1.0;" width="10" x="263" y="69.4297"/><rect fill="#FFFFFF" filter="url(#f1jqhbcxr893a9)" height="917.7891" style="stroke: #A80036; stroke-width: 1.0;" width="10" x="268" y="106.4297"/><rect fill="#FFFFFF" filter="url(#f1jqhbcxr893a9)" height="59.1328" style="stroke: #A80036; stroke-width: 1.0;" width="10" x="273" y="783.6875"/><rect fill="#FFFFFF" filter="url(#f1jqhbcxr893a9)" height="813.2578" style="stroke: #A80036; stroke-width: 1.0;" width="10" x="973" y="188.9609"/><rect fill="#FFFFFF" filter="url(#f1jqhbcxr893a9)" height="770.125" style="stroke: #A80036; stroke-width: 1.0;" width="10" x="1406" y="218.0938"/><rect fill="#FFFFFF" filter="url(#f1jqhbcxr893a9)" height="25.1328" style="stroke: #A80036; stroke-width: 1.0;" width="10" x="1411" y="905.9531"/><rect fill="#FFFFFF" filter="url(#f1jqhbcxr893a9)" height="14" style="stroke: #A80036; stroke-width: 1.0;" width="10" x="1650" y="247.2266"/><rect fill="#FFFFFF" filter="url(#f1jqhbcxr893a9)" height="14" style="stroke: #A80036; stroke-width: 1.0;" width="10" x="1650" y="585.1563"/><rect fill="#FFFFFF" filter="url(#f1jqhbcxr893a9)" height="14" style="stroke: #A80036; stroke-width: 1.0;" width="10" x="1650" y="740.5547"/><rect fill="#FFFFFF" filter="url(#f1jqhbcxr893a9)" height="14" style="stroke: #A80036; stroke-width: 1.0;" width="10" x="1650" y="974.2188"/><rect fill="#FFFFFF" filter="url(#f1jqhbcxr893a9)" height="234.5313" style="stroke: #A80036; stroke-width: 1.0;" width="10" x="1842" y="314.4922"/><rect fill="#FFFFFF" filter="url(#f1jqhbcxr893a9)" height="30" style="stroke: #A80036; stroke-width: 1.0;" width="10" x="2128" y="343.625"/><rect fill="#FFFFFF" filter="url(#f1jqhbcxr893a9)" height="30" style="stroke: #A80036; stroke-width: 1.0;" width="10" x="2128" y="402.7578"/><rect fill="#FFFFFF" filter="url(#f1jqhbcxr893a9)" height="30" style="stroke: #A80036; stroke-width: 1.0;" width="10" x="2128" y="505.0234"/><rect fill="#FFFFFF" filter="url(#f1jqhbcxr893a9)" height="14" style="stroke: #A80036; stroke-width: 1.0;" width="10" x="2325" y="461.8906"/><rect fill="#FFFFFF" filter="url(#f1jqhbcxr893a9)" height="83.1328" style="stroke: #A80036; stroke-width: 1.0;" width="10" x="2494.5" y="628.2891"/><rect fill="#FFFFFF" filter="url(#f1jqhbcxr893a9)" height="25.1328" style="stroke: #A80036; stroke-width: 1.0;" width="10" x="2499.5" y="665.2891"/><rect fill="#FFFFFF" filter="url(#f1jqhbcxr893a9)" height="30" style="stroke: #A80036; stroke-width: 1.0;" width="10" x="2882.5" y="812.8203"/><rect fill="#FFFFFF" filter="url(#f1jqhbcxr893a9)" height="890.6563" style="stroke: #000000; stroke-width: 2.0;" width="2758" x="200" y="126.5625"/><rect fill="#FFFFFF" filter="url(#f1jqhbcxr893a9)" height="859.5234" style="stroke: #000000; stroke-width: 2.0;" width="2738" x="210" y="150.6953"/><rect fill="#FFFFFF" filter="url(#f1jqhbcxr893a9)" height="280.7969" style="stroke: #000000; stroke-width: 2.0;" width="1029" x="1363.5" y="276.2266"/><rect fill="#FFFFFF" filter="url(#f1jqhbcxr893a9)" height="88.2656" style="stroke: #000000; stroke-width: 2.0;" width="123.5" x="1363.5" y="857.8203"/><rect fill="#FFFFFF" height="71.1328" style="stroke: none; stroke-width: 1.0;" width="123.5" x="1363.5" y="874.9531"/><line style="stroke: #A80036; stroke-width: 1.0; stroke-dasharray: 5.0,5.0;" x1="268" x2="268" y1="38.2969" y2="1034.2188"/><line style="stroke: #A80036; stroke-width: 1.0; stroke-dasharray: 5.0,5.0;" x1="977.5" x2="977.5" y1="38.2969" y2="1034.2188"/><line style="stroke: #A80036; stroke-width: 1.0; stroke-dasharray: 5.0,5.0;" x1="1410.5" x2="1410.5" y1="38.2969" y2="1034.2188"/><line style="stroke: #A80036; stroke-width: 1.0; stroke-dasharray: 5.0,5.0;" x1="1654.5" x2="1654.5" y1="38.2969" y2="1034.2188"/><line style="stroke: #A80036; stroke-width: 1.0; stroke-dasharray: 5.0,5.0;" x1="1846.5" x2="1846.5" y1="38.2969" y2="1034.2188"/><line style="stroke: #A80036; stroke-width: 1.0; stroke-dasharray: 5.0,5.0;" x1="2132.5" x2="2132.5" y1="38.2969" y2="1034.2188"/><line style="stroke: #A80036; stroke-width: 1.0; stroke-dasharray: 5.0,5.0;" x1="2329.5" x2="2329.5" y1="38.2969" y2="1034.2188"/><line style="stroke: #A80036; stroke-width: 1.0; stroke-dasharray: 5.0,5.0;" x1="2499.5" x2="2499.5" y1="38.2969" y2="1034.2188"/><line style="stroke: #A80036; stroke-width: 1.0; stroke-dasharray: 5.0,5.0;" x1="2887" x2="2887" y1="38.2969" y2="1034.2188"/><rect fill="#FEFECE" filter="url(#f1jqhbcxr893a9)" height="30.2969" style="stroke: #A80036; stroke-width: 1.5;" width="92" x="220" y="3"/><text fill="#000000" font-family="sans-serif" font-size="14" lengthAdjust="spacingAndGlyphs" textLength="78" x="227" y="22.9951">OverlayImpl</text><rect fill="#FEFECE" filter="url(#f1jqhbcxr893a9)" height="30.2969" style="stroke: #A80036; stroke-width: 1.5;" width="92" x="220" y="1033.2188"/><text fill="#000000" font-family="sans-serif" font-size="14" lengthAdjust="spacingAndGlyphs" textLength="78" x="227" y="1053.2139">OverlayImpl</text><rect fill="#FEFECE" filter="url(#f1jqhbcxr893a9)" height="30.2969" style="stroke: #A80036; stroke-width: 1.5;" width="767" x="592.5" y="3"/><text fill="#000000" font-family="sans-serif" font-size="14" lengthAdjust="spacingAndGlyphs" textLength="753" x="599.5" y="22.9951">OverlayImpl::broadcast(protocol::TMProposeSet &amp;)::(lambda src/ripple/overlay/impl/OverlayImpl.cpp:1227:14)</text><rect fill="#FEFECE" filter="url(#f1jqhbcxr893a9)" height="30.2969" style="stroke: #A80036; stroke-width: 1.5;" width="767" x="592.5" y="1033.2188"/><text fill="#000000" font-family="sans-serif" font-size="14" lengthAdjust="spacingAndGlyphs" textLength="753" x="599.5" y="1053.2139">OverlayImpl::broadcast(protocol::TMProposeSet &amp;)::(lambda src/ripple/overlay/impl/OverlayImpl.cpp:1227:14)</text><rect fill="#FEFECE" filter="url(#f1jqhbcxr893a9)" height="30.2969" style="stroke: #A80036; stroke-width: 1.5;" width="71" x="1373.5" y="3"/><text fill="#000000" font-family="sans-serif" font-size="14" lengthAdjust="spacingAndGlyphs" textLength="57" x="1380.5" y="22.9951">PeerImp</text><rect fill="#FEFECE" filter="url(#f1jqhbcxr893a9)" height="30.2969" style="stroke: #A80036; stroke-width: 1.5;" width="71" x="1373.5" y="1033.2188"/><text fill="#000000" font-family="sans-serif" font-size="14" lengthAdjust="spacingAndGlyphs" textLength="57" x="1380.5" y="1053.2139">PeerImp</text><rect fill="#FEFECE" filter="url(#f1jqhbcxr893a9)" height="30.2969" style="stroke: #A80036; stroke-width: 1.5;" width="77" x="1614.5" y="3"/><text fill="#000000" font-family="sans-serif" font-size="14" lengthAdjust="spacingAndGlyphs" textLength="63" x="1621.5" y="22.9951">Message</text><rect fill="#FEFECE" filter="url(#f1jqhbcxr893a9)" height="30.2969" style="stroke: #A80036; stroke-width: 1.5;" width="77" x="1614.5" y="1033.2188"/><text fill="#000000" font-family="sans-serif" font-size="14" lengthAdjust="spacingAndGlyphs" textLength="63" x="1621.5" y="1053.2139">Message</text><rect fill="#FEFECE" filter="url(#f1jqhbcxr893a9)" height="30.2969" style="stroke: #A80036; stroke-width: 1.5;" width="279" x="1705.5" y="3"/><text fill="#000000" font-family="sans-serif" font-size="14" lengthAdjust="spacingAndGlyphs" textLength="265" x="1712.5" y="22.9951">reduce_relay::Squelch&lt;UptimeClock&gt;</text><rect fill="#FEFECE" filter="url(#f1jqhbcxr893a9)" height="30.2969" style="stroke: #A80036; stroke-width: 1.5;" width="279" x="1705.5" y="1033.2188"/><text fill="#000000" font-family="sans-serif" font-size="14" lengthAdjust="spacingAndGlyphs" textLength="265" x="1712.5" y="1053.2139">reduce_relay::Squelch&lt;UptimeClock&gt;</text><rect fill="#FEFECE" filter="url(#f1jqhbcxr893a9)" height="30.2969" style="stroke: #A80036; stroke-width: 1.5;" width="265" x="1998.5" y="3"/><text fill="#000000" font-family="sans-serif" font-size="14" lengthAdjust="spacingAndGlyphs" textLength="251" x="2005.5" y="22.9951">reduce_relay::Squelch&lt;clock_type&gt;</text><rect fill="#FEFECE" filter="url(#f1jqhbcxr893a9)" height="30.2969" style="stroke: #A80036; stroke-width: 1.5;" width="265" x="1998.5" y="1033.2188"/><text fill="#000000" font-family="sans-serif" font-size="14" lengthAdjust="spacingAndGlyphs" textLength="251" x="2005.5" y="1053.2139">reduce_relay::Squelch&lt;clock_type&gt;</text><rect fill="#FEFECE" filter="url(#f1jqhbcxr893a9)" height="30.2969" style="stroke: #A80036; stroke-width: 1.5;" width="101" x="2277.5" y="3"/><text fill="#000000" font-family="sans-serif" font-size="14" lengthAdjust="spacingAndGlyphs" textLength="87" x="2284.5" y="22.9951">UptimeClock</text><rect fill="#FEFECE" filter="url(#f1jqhbcxr893a9)" height="30.2969" style="stroke: #A80036; stroke-width: 1.5;" width="101" x="2277.5" y="1033.2188"/><text fill="#000000" font-family="sans-serif" font-size="14" lengthAdjust="spacingAndGlyphs" textLength="87" x="2284.5" y="1053.2139">UptimeClock</text><rect fill="#FEFECE" filter="url(#f1jqhbcxr893a9)" height="30.2969" style="stroke: #A80036; stroke-width: 1.5;" width="210" x="2392.5" y="3"/><text fill="#000000" font-family="sans-serif" font-size="14" lengthAdjust="spacingAndGlyphs" textLength="196" x="2399.5" y="22.9951">src/ripple/basics/safe_cast.h</text><rect fill="#FEFECE" filter="url(#f1jqhbcxr893a9)" height="30.2969" style="stroke: #A80036; stroke-width: 1.5;" width="210" x="2392.5" y="1033.2188"/><text fill="#000000" font-family="sans-serif" font-size="14" lengthAdjust="spacingAndGlyphs" textLength="196" x="2399.5" y="1053.2139">src/ripple/basics/safe_cast.h</text><rect fill="#FEFECE" filter="url(#f1jqhbcxr893a9)" height="30.2969" style="stroke: #A80036; stroke-width: 1.5;" width="97" x="2837" y="3"/><text fill="#000000" font-family="sans-serif" font-size="14" lengthAdjust="spacingAndGlyphs" textLength="83" x="2844" y="22.9951">TrafficCount</text><rect fill="#FEFECE" filter="url(#f1jqhbcxr893a9)" height="30.2969" style="stroke: #A80036; stroke-width: 1.5;" width="97" x="2837" y="1033.2188"/><text fill="#000000" font-family="sans-serif" font-size="14" lengthAdjust="spacingAndGlyphs" textLength="83" x="2844" y="1053.2139">TrafficCount</text><rect fill="#FFFFFF" filter="url(#f1jqhbcxr893a9)" height="954.7891" style="stroke: #A80036; stroke-width: 1.0;" width="10" x="263" y="69.4297"/><rect fill="#FFFFFF" filter="url(#f1jqhbcxr893a9)" height="917.7891" style="stroke: #A80036; stroke-width: 1.0;" width="10" x="268" y="106.4297"/><rect fill="#FFFFFF" filter="url(#f1jqhbcxr893a9)" height="59.1328" style="stroke: #A80036; stroke-width: 1.0;" width="10" x="273" y="783.6875"/><rect fill="#FFFFFF" filter="url(#f1jqhbcxr893a9)" height="813.2578" style="stroke: #A80036; stroke-width: 1.0;" width="10" x="973" y="188.9609"/><rect fill="#FFFFFF" filter="url(#f1jqhbcxr893a9)" height="770.125" style="stroke: #A80036; stroke-width: 1.0;" width="10" x="1406" y="218.0938"/><rect fill="#FFFFFF" filter="url(#f1jqhbcxr893a9)" height="25.1328" style="stroke: #A80036; stroke-width: 1.0;" width="10" x="1411" y="905.9531"/><rect fill="#FFFFFF" filter="url(#f1jqhbcxr893a9)" height="14" style="stroke: #A80036; stroke-width: 1.0;" width="10" x="1650" y="247.2266"/><rect fill="#FFFFFF" filter="url(#f1jqhbcxr893a9)" height="14" style="stroke: #A80036; stroke-width: 1.0;" width="10" x="1650" y="585.1563"/><rect fill="#FFFFFF" filter="url(#f1jqhbcxr893a9)" height="14" style="stroke: #A80036; stroke-width: 1.0;" width="10" x="1650" y="740.5547"/><rect fill="#FFFFFF" filter="url(#f1jqhbcxr893a9)" height="14" style="stroke: #A80036; stroke-width: 1.0;" width="10" x="1650" y="974.2188"/><rect fill="#FFFFFF" filter="url(#f1jqhbcxr893a9)" height="234.5313" style="stroke: #A80036; stroke-width: 1.0;" width="10" x="1842" y="314.4922"/><rect fill="#FFFFFF" filter="url(#f1jqhbcxr893a9)" height="30" style="stroke: #A80036; stroke-width: 1.0;" width="10" x="2128" y="343.625"/><rect fill="#FFFFFF" filter="url(#f1jqhbcxr893a9)" height="30" style="stroke: #A80036; stroke-width: 1.0;" width="10" x="2128" y="402.7578"/><rect fill="#FFFFFF" filter="url(#f1jqhbcxr893a9)" height="30" style="stroke: #A80036; stroke-width: 1.0;" width="10" x="2128" y="505.0234"/><rect fill="#FFFFFF" filter="url(#f1jqhbcxr893a9)" height="14" style="stroke: #A80036; stroke-width: 1.0;" width="10" x="2325" y="461.8906"/><rect fill="#FFFFFF" filter="url(#f1jqhbcxr893a9)" height="83.1328" style="stroke: #A80036; stroke-width: 1.0;" width="10" x="2494.5" y="628.2891"/><rect fill="#FFFFFF" filter="url(#f1jqhbcxr893a9)" height="25.1328" style="stroke: #A80036; stroke-width: 1.0;" width="10" x="2499.5" y="665.2891"/><rect fill="#FFFFFF" filter="url(#f1jqhbcxr893a9)" height="30" style="stroke: #A80036; stroke-width: 1.0;" width="10" x="2882.5" y="812.8203"/><polygon fill="#A80036" points="251,65.4297,261,69.4297,251,73.4297,255,69.4297" style="stroke: #A80036; stroke-width: 1.0;"/><line style="stroke: #A80036; stroke-width: 1.0;" x1="3" x2="257" y1="69.4297" y2="69.4297"/><text fill="#000000" font-family="sans-serif" font-size="13" lengthAdjust="spacingAndGlyphs" textLength="241" x="10" y="64.3638">broadcast(protocol::TMProposeSet &amp;)</text><line style="stroke: #A80036; stroke-width: 1.0;" x1="273" x2="320" y1="93.5625" y2="93.5625"/><line style="stroke: #A80036; stroke-width: 1.0;" x1="320" x2="320" y1="93.5625" y2="106.5625"/><line style="stroke: #A80036; stroke-width: 1.0;" x1="279" x2="320" y1="106.5625" y2="106.5625"/><polygon fill="#A80036" points="289,102.5625,279,106.5625,289,110.5625,285,106.5625" style="stroke: #A80036; stroke-width: 1.0;"/><text fill="#000000" font-family="sans-serif" font-size="13" lengthAdjust="spacingAndGlyphs" textLength="686" x="285" y="88.4966">for_each((lambda at /home/bramv/src/projects/rippled/src/ripple/overlay/impl/OverlayImpl.cpp:1227:14) &amp;&amp;)</text><path d="M200,126.5625 L277,126.5625 L277,133.5625 L267,143.5625 L200,143.5625 L200,126.5625 " fill="#EEEEEE" style="stroke: #000000; stroke-width: 1.0;"/><rect fill="none" height="890.6563" style="stroke: #000000; stroke-width: 2.0;" width="2758" x="200" y="126.5625"/><text fill="#000000" font-family="sans-serif" font-size="13" font-weight="bold" lengthAdjust="spacingAndGlyphs" textLength="32" x="215" y="139.6294">loop</text><path d="M210,150.6953 L274,150.6953 L274,157.6953 L264,167.6953 L210,167.6953 L210,150.6953 " fill="#EEEEEE" style="stroke: #000000; stroke-width: 1.0;"/><rect fill="none" height="859.5234" style="stroke: #000000; stroke-width: 2.0;" width="2738" x="210" y="150.6953"/><text fill="#000000" font-family="sans-serif" font-size="13" font-weight="bold" lengthAdjust="spacingAndGlyphs" textLength="19" x="225" y="163.7622">alt</text><polygon fill="#A80036" points="961,184.9609,971,188.9609,961,192.9609,965,188.9609" style="stroke: #A80036; stroke-width: 1.0;"/><line style="stroke: #A80036; stroke-width: 1.0;" x1="278" x2="967" y1="188.9609" y2="188.9609"/><text fill="#000000" font-family="sans-serif" font-size="13" lengthAdjust="spacingAndGlyphs" textLength="75" x="285" y="183.895">operator()()</text><polygon fill="#A80036" points="1394,214.0938,1404,218.0938,1394,222.0938,1398,218.0938" style="stroke: #A80036; stroke-width: 1.0;"/><line style="stroke: #A80036; stroke-width: 1.0;" x1="983" x2="1400" y1="218.0938" y2="218.0938"/><text fill="#000000" font-family="sans-serif" font-size="13" lengthAdjust="spacingAndGlyphs" textLength="271" x="990" y="213.0278">send(const std::shared_ptr&lt;Message&gt; &amp;)</text><polygon fill="#A80036" points="1638,243.2266,1648,247.2266,1638,251.2266,1642,247.2266" style="stroke: #A80036; stroke-width: 1.0;"/><line style="stroke: #A80036; stroke-width: 1.0;" x1="1416" x2="1644" y1="247.2266" y2="247.2266"/><text fill="#000000" font-family="sans-serif" font-size="13" lengthAdjust="spacingAndGlyphs" textLength="111" x="1423" y="242.1606">getValidatorKey()</text><polygon fill="#A80036" points="1427,257.2266,1417,261.2266,1427,265.2266,1423,261.2266" style="stroke: #A80036; stroke-width: 1.0;"/><line style="stroke: #A80036; stroke-width: 1.0; stroke-dasharray: 2.0,2.0;" x1="1421" x2="1654" y1="261.2266" y2="261.2266"/><path d="M1363.5,276.2266 L1427.5,276.2266 L1427.5,283.2266 L1417.5,293.2266 L1363.5,293.2266 L1363.5,276.2266 " fill="#EEEEEE" style="stroke: #000000; stroke-width: 1.0;"/><rect fill="none" height="280.7969" style="stroke: #000000; stroke-width: 2.0;" width="1029" x="1363.5" y="276.2266"/><text fill="#000000" font-family="sans-serif" font-size="13" font-weight="bold" lengthAdjust="spacingAndGlyphs" textLength="19" x="1378.5" y="289.2935">alt</text><polygon fill="#A80036" points="1830,310.4922,1840,314.4922,1830,318.4922,1834,314.4922" style="stroke: #A80036; stroke-width: 1.0;"/><line style="stroke: #A80036; stroke-width: 1.0;" x1="1416" x2="1836" y1="314.4922" y2="314.4922"/><text fill="#000000" font-family="sans-serif" font-size="13" font-weight="bold" lengthAdjust="spacingAndGlyphs" textLength="6" x="1423" y="309.4263">[</text><text fill="#000000" font-family="sans-serif" font-size="13" lengthAdjust="spacingAndGlyphs" textLength="214" x="1429" y="309.4263">expireSquelch(const PublicKey &amp;)</text><text fill="#000000" font-family="sans-serif" font-size="13" font-weight="bold" lengthAdjust="spacingAndGlyphs" textLength="6" x="1643" y="309.4263">]</text><polygon fill="#A80036" points="2116,339.625,2126,343.625,2116,347.625,2120,343.625" style="stroke: #A80036; stroke-width: 1.0;"/><line style="stroke: #A80036; stroke-width: 1.0;" x1="1852" x2="2122" y1="343.625" y2="343.625"/><text fill="#000000" font-family="sans-serif" font-size="13" lengthAdjust="spacingAndGlyphs" textLength="224" x="1859" y="338.5591">removeSquelch(const PublicKey &amp;)</text><polygon fill="#A80036" points="2116,398.7578,2126,402.7578,2116,406.7578,2120,402.7578" style="stroke: #A80036; stroke-width: 1.0;"/><line style="stroke: #A80036; stroke-width: 1.0;" x1="1852" x2="2122" y1="402.7578" y2="402.7578"/><text fill="#000000" font-family="sans-serif" font-size="13" lengthAdjust="spacingAndGlyphs" textLength="224" x="1859" y="397.6919">removeSquelch(const PublicKey &amp;)</text><polygon fill="#A80036" points="2313,457.8906,2323,461.8906,2313,465.8906,2317,461.8906" style="stroke: #A80036; stroke-width: 1.0;"/><line style="stroke: #A80036; stroke-width: 1.0;" x1="1852" x2="2319" y1="461.8906" y2="461.8906"/><text fill="#000000" font-family="sans-serif" font-size="13" lengthAdjust="spacingAndGlyphs" text-decoration="underline" textLength="35" x="1859" y="456.8247">now()</text><line style="stroke: #000000; stroke-width: 1.0;" x1="1859" x2="1894" y1="458.8247" y2="458.8247"/><polygon fill="#A80036" points="1863,471.8906,1853,475.8906,1863,479.8906,1859,475.8906" style="stroke: #A80036; stroke-width: 1.0;"/><line style="stroke: #A80036; stroke-width: 1.0; stroke-dasharray: 2.0,2.0;" x1="1857" x2="2329" y1="475.8906" y2="475.8906"/><polygon fill="#A80036" points="2116,501.0234,2126,505.0234,2116,509.0234,2120,505.0234" style="stroke: #A80036; stroke-width: 1.0;"/><line style="stroke: #A80036; stroke-width: 1.0;" x1="1852" x2="2122" y1="505.0234" y2="505.0234"/><text fill="#000000" font-family="sans-serif" font-size="13" lengthAdjust="spacingAndGlyphs" textLength="224" x="1859" y="499.9575">removeSquelch(const PublicKey &amp;)</text><polygon fill="#A80036" points="1427,545.0234,1417,549.0234,1427,553.0234,1423,549.0234" style="stroke: #A80036; stroke-width: 1.0;"/><line style="stroke: #A80036; stroke-width: 1.0; stroke-dasharray: 2.0,2.0;" x1="1421" x2="1846" y1="549.0234" y2="549.0234"/><polygon fill="#A80036" points="1638,581.1563,1648,585.1563,1638,589.1563,1642,585.1563" style="stroke: #A80036; stroke-width: 1.0;"/><line style="stroke: #A80036; stroke-width: 1.0;" x1="1416" x2="1644" y1="585.1563" y2="585.1563"/><text fill="#000000" font-family="sans-serif" font-size="13" lengthAdjust="spacingAndGlyphs" textLength="89" x="1423" y="580.0903">getCategory()</text><polygon fill="#A80036" points="1427,595.1563,1417,599.1563,1427,603.1563,1423,599.1563" style="stroke: #A80036; stroke-width: 1.0;"/><line style="stroke: #A80036; stroke-width: 1.0; stroke-dasharray: 2.0,2.0;" x1="1421" x2="1654" y1="599.1563" y2="599.1563"/><polygon fill="#A80036" points="2482.5,624.2891,2492.5,628.2891,2482.5,632.2891,2486.5,628.2891" style="stroke: #A80036; stroke-width: 1.0;"/><line style="stroke: #A80036; stroke-width: 1.0;" x1="1416" x2="2488.5" y1="628.2891" y2="628.2891"/><text fill="#000000" font-family="sans-serif" font-size="13" lengthAdjust="spacingAndGlyphs" textLength="415" x="1423" y="623.2231">safe_cast&lt;TrafficCount::category,unsigned long&gt;(unsigned long)</text><line style="stroke: #A80036; stroke-width: 1.0;" x1="2504.5" x2="2551.5" y1="652.4219" y2="652.4219"/><line style="stroke: #A80036; stroke-width: 1.0;" x1="2551.5" x2="2551.5" y1="652.4219" y2="665.4219"/><line style="stroke: #A80036; stroke-width: 1.0;" x1="2510.5" x2="2551.5" y1="665.4219" y2="665.4219"/><polygon fill="#A80036" points="2520.5,661.4219,2510.5,665.4219,2520.5,669.4219,2516.5,665.4219" style="stroke: #A80036; stroke-width: 1.0;"/><text fill="#000000" font-family="sans-serif" font-size="13" lengthAdjust="spacingAndGlyphs" textLength="364" x="2516.5" y="647.356">safe_cast&lt;unsigned long,unsigned long&gt;(unsigned long)</text><line style="stroke: #A80036; stroke-width: 1.0; stroke-dasharray: 2.0,2.0;" x1="2509.5" x2="2551.5" y1="689.4219" y2="689.4219"/><line style="stroke: #A80036; stroke-width: 1.0; stroke-dasharray: 2.0,2.0;" x1="2551.5" x2="2551.5" y1="689.4219" y2="702.4219"/><line style="stroke: #A80036; stroke-width: 1.0; stroke-dasharray: 2.0,2.0;" x1="2504.5" x2="2551.5" y1="702.4219" y2="702.4219"/><polygon fill="#A80036" points="2514.5,698.4219,2504.5,702.4219,2514.5,706.4219,2510.5,702.4219" style="stroke: #A80036; stroke-width: 1.0;"/><polygon fill="#A80036" points="1427,707.4219,1417,711.4219,1427,715.4219,1423,711.4219" style="stroke: #A80036; stroke-width: 1.0;"/><line style="stroke: #A80036; stroke-width: 1.0; stroke-dasharray: 2.0,2.0;" x1="1421" x2="2498.5" y1="711.4219" y2="711.4219"/><polygon fill="#A80036" points="1638,736.5547,1648,740.5547,1638,744.5547,1642,740.5547" style="stroke: #A80036; stroke-width: 1.0;"/><line style="stroke: #A80036; stroke-width: 1.0;" x1="1416" x2="1644" y1="740.5547" y2="740.5547"/><text fill="#000000" font-family="sans-serif" font-size="13" lengthAdjust="spacingAndGlyphs" textLength="215" x="1423" y="735.4888">getBuffer(Message::Compressed)</text><polygon fill="#A80036" points="1427,750.5547,1417,754.5547,1427,758.5547,1423,754.5547" style="stroke: #A80036; stroke-width: 1.0;"/><line style="stroke: #A80036; stroke-width: 1.0; stroke-dasharray: 2.0,2.0;" x1="1421" x2="1654" y1="754.5547" y2="754.5547"/><polygon fill="#A80036" points="294,779.6875,284,783.6875,294,787.6875,290,783.6875" style="stroke: #A80036; stroke-width: 1.0;"/><line style="stroke: #A80036; stroke-width: 1.0;" x1="288" x2="1405" y1="783.6875" y2="783.6875"/><text fill="#000000" font-family="sans-serif" font-size="13" lengthAdjust="spacingAndGlyphs" textLength="278" x="300" y="778.6216">reportTraffic(TrafficCount::category,bool,int)</text><polygon fill="#A80036" points="2870.5,808.8203,2880.5,812.8203,2870.5,816.8203,2874.5,812.8203" style="stroke: #A80036; stroke-width: 1.0;"/><line style="stroke: #A80036; stroke-width: 1.0;" x1="283" x2="2876.5" y1="812.8203" y2="812.8203"/><text fill="#000000" font-family="sans-serif" font-size="13" lengthAdjust="spacingAndGlyphs" textLength="263" x="290" y="807.7544">addCount(TrafficCount::category,bool,int)</text><path d="M1363.5,857.8203 L1427.5,857.8203 L1427.5,864.8203 L1417.5,874.8203 L1363.5,874.8203 L1363.5,857.8203 " fill="#EEEEEE" style="stroke: #000000; stroke-width: 1.0;"/><rect fill="none" height="88.2656" style="stroke: #000000; stroke-width: 2.0;" width="123.5" x="1363.5" y="857.8203"/><text fill="#000000" font-family="sans-serif" font-size="13" font-weight="bold" lengthAdjust="spacingAndGlyphs" textLength="19" x="1378.5" y="870.8872">alt</text><line style="stroke: #000000; stroke-width: 1.0; stroke-dasharray: 2.0,2.0;" x1="1363.5" x2="1487" y1="875.9531" y2="875.9531"/><line style="stroke: #A80036; stroke-width: 1.0;" x1="1416" x2="1463" y1="893.0859" y2="893.0859"/><line style="stroke: #A80036; stroke-width: 1.0;" x1="1463" x2="1463" y1="893.0859" y2="906.0859"/><line style="stroke: #A80036; stroke-width: 1.0;" x1="1422" x2="1463" y1="906.0859" y2="906.0859"/><polygon fill="#A80036" points="1432,902.0859,1422,906.0859,1432,910.0859,1428,906.0859" style="stroke: #A80036; stroke-width: 1.0;"/><text fill="#000000" font-family="sans-serif" font-size="13" lengthAdjust="spacingAndGlyphs" textLength="47" x="1428" y="888.02">name()</text><line style="stroke: #A80036; stroke-width: 1.0; stroke-dasharray: 2.0,2.0;" x1="1421" x2="1463" y1="930.0859" y2="930.0859"/><line style="stroke: #A80036; stroke-width: 1.0; stroke-dasharray: 2.0,2.0;" x1="1463" x2="1463" y1="930.0859" y2="943.0859"/><line style="stroke: #A80036; stroke-width: 1.0; stroke-dasharray: 2.0,2.0;" x1="1416" x2="1463" y1="943.0859" y2="943.0859"/><polygon fill="#A80036" points="1426,939.0859,1416,943.0859,1426,947.0859,1422,943.0859" style="stroke: #A80036; stroke-width: 1.0;"/><polygon fill="#A80036" points="1638,970.2188,1648,974.2188,1638,978.2188,1642,974.2188" style="stroke: #A80036; stroke-width: 1.0;"/><line style="stroke: #A80036; stroke-width: 1.0;" x1="1416" x2="1644" y1="974.2188" y2="974.2188"/><text fill="#000000" font-family="sans-serif" font-size="13" lengthAdjust="spacingAndGlyphs" textLength="215" x="1423" y="969.1528">getBuffer(Message::Compressed)</text><polygon fill="#A80036" points="1422,984.2188,1412,988.2188,1422,992.2188,1418,988.2188" style="stroke: #A80036; stroke-width: 1.0;"/><line style="stroke: #A80036; stroke-width: 1.0; stroke-dasharray: 2.0,2.0;" x1="1416" x2="1654" y1="988.2188" y2="988.2188"/><polygon fill="#A80036" points="289,998.2188,279,1002.2188,289,1006.2188,285,1002.2188" style="stroke: #A80036; stroke-width: 1.0;"/><line style="stroke: #A80036; stroke-width: 1.0; stroke-dasharray: 2.0,2.0;" x1="283" x2="977" y1="1002.2188" y2="1002.2188"/><!--
@startuml
participant "OverlayImpl" as C_0001116672667747658761
[-> C_0001116672667747658761 : broadcast(protocol::TMProposeSet &)
activate C_0001116672667747658761
C_0001116672667747658761 -> C_0001116672667747658761 : for_each((lambda at /home/bramv/src/projects/rippled/src/ripple/overlay/impl/OverlayImpl.cpp:1227:14) &&)
activate C_0001116672667747658761
loop
alt
participant "OverlayImpl::broadcast(protocol::TMProposeSet &)::(lambda src/ripple/overlay/impl/OverlayImpl.cpp:1227:14)" as C_0000042931652662938771
C_0001116672667747658761 -> C_0000042931652662938771 : operator()()
activate C_0000042931652662938771
participant "PeerImp" as C_0002118346084380460994
C_0000042931652662938771 -> C_0002118346084380460994 : send(const std::shared_ptr<Message> &)
activate C_0002118346084380460994
participant "Message" as C_0000073086002242562289
C_0002118346084380460994 -> C_0000073086002242562289 : getValidatorKey()
activate C_0000073086002242562289
C_0000073086002242562289 - -> C_0002118346084380460994
deactivate C_0000073086002242562289
alt
participant "reduce_relay::Squelch<UptimeClock>" as C_0001668540836965143527
C_0002118346084380460994 -> C_0001668540836965143527 : **[**expireSquelch(const PublicKey &)**]**
activate C_0001668540836965143527
participant "reduce_relay::Squelch<clock_type>" as C_0000525118826224551864
C_0001668540836965143527 -> C_0000525118826224551864 : removeSquelch(const PublicKey &)
activate C_0000525118826224551864
deactivate C_0000525118826224551864
C_0001668540836965143527 -> C_0000525118826224551864 : removeSquelch(const PublicKey &)
activate C_0000525118826224551864
deactivate C_0000525118826224551864
participant "UptimeClock" as C_0001472880491539920613
C_0001668540836965143527 -> C_0001472880491539920613 : __now()__
activate C_0001472880491539920613
C_0001472880491539920613 - -> C_0001668540836965143527
deactivate C_0001472880491539920613
C_0001668540836965143527 -> C_0000525118826224551864 : removeSquelch(const PublicKey &)
activate C_0000525118826224551864
deactivate C_0000525118826224551864
C_0001668540836965143527 - -> C_0002118346084380460994
deactivate C_0001668540836965143527
end
C_0002118346084380460994 -> C_0000073086002242562289 : getCategory()
activate C_0000073086002242562289
C_0000073086002242562289 - -> C_0002118346084380460994
deactivate C_0000073086002242562289
participant "src/ripple/basics/safe_cast.h" as C_0002165997920711711627
C_0002118346084380460994 -> C_0002165997920711711627 : safe_cast<TrafficCount::category,unsigned long>(unsigned long)
activate C_0002165997920711711627
C_0002165997920711711627 -> C_0002165997920711711627 : safe_cast<unsigned long,unsigned long>(unsigned long)
activate C_0002165997920711711627
C_0002165997920711711627 - -> C_0002165997920711711627
deactivate C_0002165997920711711627
C_0002165997920711711627 - -> C_0002118346084380460994
deactivate C_0002165997920711711627
C_0002118346084380460994 -> C_0000073086002242562289 : getBuffer(Message::Compressed)
activate C_0000073086002242562289
C_0000073086002242562289 - -> C_0002118346084380460994
deactivate C_0000073086002242562289
C_0002118346084380460994 -> C_0001116672667747658761 : reportTraffic(TrafficCount::category,bool,int)
activate C_0001116672667747658761
participant "TrafficCount" as C_0000695798640095218486
C_0001116672667747658761 -> C_0000695798640095218486 : addCount(TrafficCount::category,bool,int)
activate C_0000695798640095218486
deactivate C_0000695798640095218486
deactivate C_0001116672667747658761
alt
else
C_0002118346084380460994 -> C_0002118346084380460994 : name()
activate C_0002118346084380460994
C_0002118346084380460994 - -> C_0002118346084380460994
deactivate C_0002118346084380460994
end
C_0002118346084380460994 -> C_0000073086002242562289 : getBuffer(Message::Compressed)
activate C_0000073086002242562289
C_0000073086002242562289 - -> C_0002118346084380460994
deactivate C_0000073086002242562289
deactivate C_0002118346084380460994
C_0000042931652662938771 - -> C_0001116672667747658761
deactivate C_0000042931652662938771
end
end
deactivate C_0001116672667747658761
deactivate C_0001116672667747658761
@enduml

PlantUML version 1.2018.13(Mon Nov 26 17:11:51 UTC 2018)
(GPL source distribution)
Java Runtime: OpenJDK Runtime Environment
JVM: OpenJDK 64-Bit Server VM
Java Version: 11.0.17+8-post-Ubuntu-1ubuntu220.04
Operating System: Linux
OS Version: 5.4.0-91-generic
Default Encoding: UTF-8
Language: en
Country: null
--></g></svg>